<?xml version="1.0" encoding="UTF-8" standalone="no"?>
<!-- This Source Code Form is subject to the terms of the Mozilla Public
   - License, v. 2.0. If a copy of the MPL was not distributed with this
   - file, You can obtain one at http://mozilla.org/MPL/2.0/. -->

<svg
   width="132px"
   height="48px"
   viewBox="0 0 132 48"
   id="svg2"
   version="1.1"
   inkscape:version="1.3.2 (091e20e, 2023-11-25)"
   sodipodi:docname="about-wordmark.svg"
   xmlns:inkscape="http://www.inkscape.org/namespaces/inkscape"
   xmlns:sodipodi="http://sodipodi.sourceforge.net/DTD/sodipodi-0.dtd"
   xmlns="http://www.w3.org/2000/svg"
   xmlns:svg="http://www.w3.org/2000/svg"
   xmlns:rdf="http://www.w3.org/1999/02/22-rdf-syntax-ns#"
   xmlns:cc="http://creativecommons.org/ns#"
   xmlns:dc="http://purl.org/dc/elements/1.1/">
  <metadata
     id="metadata10">
    <rdf:RDF>
      <cc:Work
         rdf:about="">
        <dc:format>image/svg+xml</dc:format>
        <dc:type
           rdf:resource="http://purl.org/dc/dcmitype/StillImage" />
      </cc:Work>
    </rdf:RDF>
  </metadata>
  <defs
     id="defs8" />
  <sodipodi:namedview
     pagecolor="#ffffff"
     bordercolor="#666666"
     borderopacity="1"
     objecttolerance="10"
     gridtolerance="10"
     guidetolerance="10"
     inkscape:pageopacity="0"
     inkscape:pageshadow="2"
     inkscape:window-width="1920"
     inkscape:window-height="1087"
     id="namedview6"
     showgrid="false"
     inkscape:zoom="2.4090909"
     inkscape:cx="51.886793"
     inkscape:cy="-60.188679"
     inkscape:window-x="0"
     inkscape:window-y="25"
     inkscape:window-maximized="1"
     inkscape:current-layer="text4138"
     inkscape:showpageshadow="2"
     inkscape:pagecheckerboard="0"
     inkscape:deskcolor="#d1d1d1" />
  <g
     transform="matrix(0.83939803,0,0,1.1913299,-149.43396,-76.377359)"
     style="font-style:normal;font-variant:normal;font-weight:normal;font-stretch:normal;font-size:42.5612px;line-height:125%;font-family:'Levenim MT';-inkscape-font-specification:'Levenim MT';letter-spacing:0px;word-spacing:0px;fill:#a8e6db;fill-opacity:1;stroke:none;stroke-width:1px;stroke-linecap:butt;stroke-linejoin:miter;stroke-opacity:1"
     id="text4138">
    <path
       style="font-size:48.953px;font-family:Kefa;-inkscape-font-specification:Kefa;fill:#a8e6da;stroke-width:1.15"
       d="m 164.37752,84.063676 q 5.18691,0 7.19475,0.621474 2.00784,0.597571 2.00784,2.342477 0,1.60149 -1.29076,2.844437 -5.01959,-2.294672 -9.3221,-2.294672 -3.03566,0 -4.30251,1.219045 -1.24295,1.195141 -1.24295,3.322493 0,2.222964 1.48198,3.537619 1.50588,1.314656 5.68887,2.629312 4.94789,1.481975 7.48159,3.418109 2.5576,1.91222 2.70102,6.21473 0,4.80447 -3.29859,7.26646 -3.27469,2.46199 -10.03919,2.46199 -4.70886,0 -7.14695,-0.66927 -2.43809,-0.66928 -2.43809,-2.4859 0,-1.64929 1.38637,-2.91614 4.73276,2.5815 9.84796,2.5815 3.51372,0 4.9957,-1.14733 1.48197,-1.14734 1.48197,-3.53762 0,-2.86834 -2.15125,-4.30251 -2.12735,-1.43417 -6.81231,-2.91615 -4.54154,-1.38636 -6.47767,-3.46591 -1.91222,-2.103449 -1.91222,-5.497651 0,-4.230801 3.13127,-6.716696 3.15517,-2.509797 9.03527,-2.509797 z m 22.03841,12.262153 q 2.36638,-1.577587 4.66105,-2.318575 2.31857,-0.740988 4.13519,-0.740988 3.17908,0 4.78057,1.481976 1.62539,1.458073 1.62539,5.593258 0,12.85973 0.35854,13.62462 0.38245,0.76489 1.721,0.74099 0.26294,0.69318 0.26294,1.38636 0,0.64538 -0.40635,0.8605 -0.40635,0.21513 -1.50588,0.21513 -3.32249,0 -4.06348,-0.0717 -0.74099,-0.0956 -1.00392,-0.50196 -0.26293,-0.43025 -0.26293,-1.41027 v -10.30212 q 0,-4.923981 -1.05173,-6.549373 -1.02782,-1.625393 -3.34639,-1.625393 -1.98394,0 -3.44201,1.123433 -1.43417,1.123433 -1.43417,4.039583 v 5.04349 q 0,4.2308 0.16732,7.79233 h 2.65321 q 0.28684,0.62147 0.28684,1.33855 0,0.64538 -0.26293,0.88441 -0.26293,0.23903 -1.00392,0.23903 h -9.39382 q -0.31073,-0.76489 -0.31073,-1.43417 0,-0.52586 0.26293,-0.76489 0.26293,-0.26293 0.8605,-0.26293 h 1.6493 q 0.19122,-3.80055 0.19122,-9.32211 0,-7.051333 -0.54977,-8.174766 -0.54976,-1.123434 -2.10345,-1.123434 -0.31073,-0.669279 -0.31073,-1.386364 0,-0.645376 0.50196,-0.812696 0.50196,-0.191223 6.33425,-0.382445 0.14341,1.09953 0,2.820534 z m 36.23669,18.931041 q -2.00784,1.17124 -4.13519,1.79271 -2.10345,0.59757 -4.13519,0.59757 -3.22688,0 -4.80447,-1.50587 -1.57758,-1.52979 -1.57758,-4.51764 0,-3.65713 2.6054,-5.59326 2.60541,-1.93613 8.05526,-1.93613 h 3.51371 q -0.14341,-4.206899 -1.21904,-5.856195 -1.05172,-1.649295 -3.75274,-1.649295 -1.43417,0 -2.74883,0.286834 -0.69318,1.386364 -0.8366,1.481975 -0.11951,0.09561 -1.36246,0.430251 -1.24295,0.310737 -1.74491,-0.119514 -0.47805,-0.454154 -1.00392,-1.625392 -0.50196,-1.171239 -0.50196,-1.888324 0,-0.478057 0.38245,-0.740988 0.40635,-0.262931 3.22688,-0.645376 2.82054,-0.382446 5.99961,-0.382446 4.2308,0 6.23864,1.458073 2.03174,1.458073 2.03174,5.354237 v 7.36207 q 0,5.11521 0.43025,6.23864 0.45416,1.12343 1.48198,0.90831 0.28683,0.52586 0.28683,1.02782 0,0.81269 -1.02782,1.24295 -1.00392,0.43025 -2.72492,0.43025 -0.8366,0 -1.29075,-0.21513 -0.43026,-0.19122 -1.38637,-1.93613 z m -0.47806,-8.07916 q -2.05564,-0.35854 -4.2547,-0.35854 -2.72492,0 -3.82445,0.90831 -1.07563,0.90831 -1.07563,2.86834 0,1.91223 0.95611,2.89224 0.98002,0.95612 3.01176,0.95612 1.57759,0 2.94005,-0.62148 1.36246,-0.62147 1.79271,-1.721 0.45415,-1.12344 0.45415,-3.51372 z m 20.81937,7.5294 q 0.28683,0.62147 0.28683,1.33855 0,0.64538 -0.26293,0.88441 -0.26293,0.23903 -1.00392,0.23903 h -9.03527 q -0.31074,-0.76489 -0.31074,-1.43417 0,-0.52586 0.26293,-0.76489 0.26294,-0.26293 0.86051,-0.26293 h 1.76881 q 0.19122,-3.3225 0.19122,-11.23433 0,-10.110902 -0.0956,-12.859728 -0.0956,-2.772728 -0.35854,-3.609328 -0.23903,-0.836599 -0.8127,-1.075627 -0.57367,-0.239028 -1.50588,-0.239028 -0.31074,-0.740988 -0.31074,-1.458073 0,-0.740988 0.59757,-0.93221 0.62148,-0.191223 3.94397,-0.191223 1.88833,0 2.5576,0.191223 0.66928,0.167319 0.7649,0.669279 0.0956,0.478056 0.0956,1.673198 v 18.835427 q 2.10345,-1.62539 4.42202,-3.77664 2.31858,-2.151258 4.15909,-4.254707 h -1.6732 q -0.31073,-0.693182 -0.31073,-1.410267 0,-0.717085 0.26293,-1.003919 0.28683,-0.286834 0.93221,-0.286834 h 7.45768 q 0.28684,0.669279 0.28684,1.43417 0,0.740988 -0.31074,1.003919 -0.28683,0.262931 -1.07563,0.262931 h -0.95611 l -7.17085,6.668887 q 3.56152,5.42595 5.44985,7.86403 1.88832,2.41419 2.74882,3.08347 0.88441,0.64538 2.03174,0.64538 0.35854,1.24294 -0.0956,1.86442 -0.43025,0.59757 -3.01176,0.59757 -2.34247,0 -2.98785,-0.35854 -0.62147,-0.35855 -1.24295,-1.38637 -0.62147,-1.05172 -1.93613,-3.25078 -1.31465,-2.22297 -4.11128,-6.50157 l -2.86834,2.67711 q 0.0239,3.03566 0.19122,6.35816 z m 26.36482,-18.357378 q -2.39029,0 -3.63323,1.721003 -1.24295,1.697101 -1.36246,5.330335 h 2.46199 q 3.92006,0 5.33033,-0.14342 1.43417,-0.16732 1.64929,-0.52586 0.23903,-0.35854 0.23903,-1.33856 0,-2.366381 -1.19514,-3.70494 -1.19514,-1.338558 -3.48981,-1.338558 z m 0.90831,-3.20298 q 4.44592,0 6.59718,2.103449 2.15125,2.10345 2.15125,6.931819 0,2.12735 -0.76489,2.96395 -0.76489,0.8366 -3.3464,0.8366 h -10.56505 q 0.0478,3.89616 1.55369,6.11913 1.52978,2.22296 5.37813,2.22296 3.58543,0 6.66889,-1.86442 1.02783,1.02782 1.02783,2.17516 0,1.60149 -2.65322,2.24686 -2.62931,0.64538 -5.9518,0.64538 -6.11913,0 -8.79625,-2.58151 -2.65321,-2.6054 -2.65321,-8.74843 0,-6.04742 2.98785,-9.537232 3.01176,-3.513716 8.366,-3.513716 z"
       id="text1"
       transform="scale(1.1913299,0.83939805)"
       aria-label="Snake" />
  </g>
</svg>
